HIERARCHY
ROOT Hips
{
	OFFSET 0.00000 0.00000 0.00000
	CHANNELS 6 Xposition Yposition Zposition Zrotation Yrotation Xrotation 
	JOINT LHipJoint
	{
		OFFSET 0 0 0
		CHANNELS 3 Zrotation Yrotation Xrotation
		JOINT LeftHip
		{
			OFFSET 1.74857 -1.85566 0.69197
			CHANNELS 3 Zrotation Yrotation Xrotation
			JOINT LeftKnee
			{
				OFFSET 2.40003 -6.59403 0.00000
				CHANNELS 3 Zrotation Yrotation Xrotation
				JOINT LeftAnkle
				{
					OFFSET 2.82169 -7.75254 0.00000
					CHANNELS 3 Zrotation Yrotation Xrotation
					JOINT LeftToe
					{
						OFFSET 0.16466 -0.45240 2.26890
						CHANNELS 3 Zrotation Yrotation Xrotation
						End Site
						{
							OFFSET 0.00000 -0.00000 1.16486
						}
					}
				}
			}
		}
	}
	JOINT RHipJoint
	{
		OFFSET 0 0 0
		CHANNELS 3 Zrotation Yrotation Xrotation
		JOINT RightHip
		{
			OFFSET -1.64169 -1.85566 0.69197
			CHANNELS 3 Zrotation Yrotation Xrotation
			JOINT RightKnee
			{
				OFFSET -2.41814 -6.64379 0.00000
				CHANNELS 3 Zrotation Yrotation Xrotation
				JOINT RightAnkle
				{
					OFFSET -2.80588 -7.70911 0.00000
					CHANNELS 3 Zrotation Yrotation Xrotation
					JOINT RightToe
					{
						OFFSET -0.19098 -0.52472 2.25401
						CHANNELS 3 Zrotation Yrotation Xrotation
						End Site
						{
							OFFSET -0.00000 -0.00000 1.16333
						}
					}
				}
			}
		}
	}
	JOINT lowerback
	{
		OFFSET 0 0 0
		CHANNELS 3 Zrotation Yrotation Xrotation
		JOINT Chest
		{
			OFFSET -0.02828 2.14690 -0.11061
			CHANNELS 3 Zrotation Yrotation Xrotation
			JOINT Chest2
			{
				OFFSET -0.00167 2.15299 0.00759
				CHANNELS 3 Zrotation Yrotation Xrotation
				JOINT lowerneck
				{
					OFFSET 0 0 0
					CHANNELS 3 Zrotation Yrotation Xrotation
					JOINT Neck
					{
						OFFSET -0.09296 1.90118 0.07197
						CHANNELS 3 Zrotation Yrotation Xrotation
						JOINT Head
						{
							OFFSET 0.08490 1.89526 -0.24604
							CHANNELS 3 Zrotation Yrotation Xrotation
							End Site
							{
								OFFSET 0.03186 1.92109 -0.09483
							}
						}
					}
				}
				JOINT LeftCollar
				{
					OFFSET 0 0 0
					CHANNELS 3 Zrotation Yrotation Xrotation
					JOINT LeftShoulder
					{
						OFFSET 3.21569 1.44644 -0.03720
CHANNELS 3 Zrotation Xrotation Yrotation
						JOINT LeftElbow
						{
OFFSET 0 -5.476510 -0.000000
CHANNELS 3 Zrotation Xrotation Yrotation
							JOINT LeftWrist
							{
OFFSET 0 -3.090580 -0.000000
CHANNELS 3 Zrotation Xrotation Yrotation
								JOINT lhand
								{
									OFFSET 0 0 0
CHANNELS 3 Zrotation Xrotation Yrotation
									JOINT LFingers
									{
OFFSET 0 -0.771610 -0.000000
CHANNELS 3 Zrotation Xrotation Yrotation
										End Site
										{
OFFSET 0 -0.622090 -0.000000
										}
									}
								}
								JOINT LThumb
								{
OFFSET 0 0.000000 0.000000
CHANNELS 3 Zrotation Xrotation Yrotation
									End Site
									{
OFFSET 0 -0.631590 0.631590
									}
								}
							}
						}
					}
				}
				JOINT RightCollar
				{
					OFFSET 0 0 0
					CHANNELS 3 Zrotation Yrotation Xrotation
					JOINT RightShoulder
					{
						OFFSET -3.38693 1.28904 -0.07093
CHANNELS 3 Zrotation Xrotation Yrotation
						JOINT RightElbow
						{
OFFSET 0 -5.141820 -0.000000
CHANNELS 3 Zrotation Xrotation Yrotation
							JOINT RightWrist
							{
OFFSET 0 -3.355650 -0.000000
CHANNELS 3 Zrotation Xrotation Yrotation
								JOINT rhand
								{
									OFFSET 0 0 0
CHANNELS 3 Zrotation Xrotation Yrotation
									JOINT RFingers
									{
OFFSET 0 -0.801040 -0.000000
CHANNELS 3 Zrotation Xrotation Yrotation
										End Site
										{
OFFSET 0 -0.645820 -0.000000
										}
									}
								}
								JOINT RThumb
								{
OFFSET 0 0.000000 0.000000
CHANNELS 3 Zrotation Xrotation Yrotation
									End Site
									{
OFFSET 0 -0.655680 0.655680
									}
								}
							}
						}
					}
				}
			}
		}
	}
}
MOTION
Frames: 9
Frame Time: 0.008333333333333333
0.388300 17.905900 -1.481100 0.132800 -13.139100 3.914900 0.000000 0.000000 0.000000 -20.133400 0.090800 -16.214300 2.615100 10.044200 29.119800 1.141100 7.196100 -23.979400 0.369500 -3.904400 -10.807800 0.000000 0.000000 0.000000 16.164400 13.035200 -14.731500 -2.222300 -9.314500 26.784300 -0.571900 -3.008300 -15.695900 -0.694900 5.328800 -14.848600 -6.519100 -5.151700 8.538500 -2.515500 -7.391700 3.578800 1.637400 -3.737500 -0.547500 -4.233400 6.889400 -1.985700 5.921100 8.840300 11.839000 3.031100 4.413600 3.745700 -0.000000 0.000000 0.000000 -9.516400 -45.041100 -100.842000 45.679700 -51.097200 22.766500 27.907200 -21.456800 -24.031600 0.000000 0.000000 0.000000 -7.125000 0.000000 0.000000 -1.566600 56.746900 0.451100 -0.000000 0.000000 0.000000 -37.149300 -36.712500 46.517300 -67.669700 -58.029400 -40.789300 -30.782800 -71.174400 -25.194100 0.000000 0.000000 0.000000 7.125000 0.000000 -0.000000 -0.698300 1.277200 -0.682600
0.305185 17.946586 -1.550007 0.852535 -10.040222 3.954155 0.000000 0.000000 0.000000 -20.200829 -2.024928 -16.618566 2.713690 10.216487 29.680603 0.944196 6.255562 -21.644119 0.674983 -5.253302 -14.632473 0.000000 0.000000 0.000000 15.670659 11.544363 -14.573528 -2.111727 -9.095072 26.093102 -0.550558 -4.084430 -16.102586 -0.559479 4.790965 -13.313281 -5.606143 -4.062126 8.432302 -2.043402 -5.851464 3.744989 1.503042 -2.969590 -0.474502 -4.436877 5.132037 -1.990469 5.287772 6.585619 11.002172 2.771305 3.277355 3.599205 0.000000 0.000000 0.000000 -4.156880 -42.354749 -97.089339 48.902732 -52.543132 25.300452 28.108816 -22.010424 -24.458238 0.000000 0.000000 0.000000 -7.125000 0.000000 0.000000 -1.476322 57.252333 0.443161 0.000000 0.000000 0.000000 -32.164884 -35.842843 51.163177 -66.974276 -57.898678 -40.199803 -30.405828 -70.126927 -25.551836 0.000000 0.000000 0.000000 7.125000 0.000000 0.000000 -0.412743 0.979520 -0.405597
0.220927 17.990069 -1.629605 1.075561 -6.696355 3.805213 0.000000 0.000000 0.000000 -20.123123 -2.926187 -16.121229 2.478826 9.799250 28.329090 0.767682 5.725624 -19.600471 0.753407 -5.543861 -15.466388 0.000000 0.000000 0.000000 15.789697 10.358886 -13.892045 -1.992197 -8.849741 25.326490 -0.514115 -5.682857 -16.812226 -0.424483 4.181322 -11.587374 -3.091065 -1.392656 8.529348 -1.122003 -2.106505 3.891425 0.764104 -1.079914 -0.679977 -4.945487 1.863897 -1.763383 4.352702 2.324793 10.789109 2.417835 1.120863 3.728476 0.000000 0.000000 0.000000 3.798547 -39.161001 -92.944894 53.276406 -54.234163 28.812275 30.186322 -23.109601 -25.031481 0.000000 0.000000 0.000000 -7.125000 0.000000 0.000000 0.700756 58.358166 -0.229797 0.000000 0.000000 0.000000 -24.187364 -34.546980 57.356650 -64.204018 -57.329818 -37.860268 -30.848438 -69.132195 -25.658855 0.000000 0.000000 0.000000 7.125000 0.000000 0.000000 -0.658500 0.752240 -0.650137
0.129247 17.948104 -1.727386 1.080027 -3.306504 3.765150 0.000000 0.000000 0.000000 -19.909739 -5.101021 -15.340462 2.267749 9.402835 27.063758 0.708218 5.816863 -19.060231 0.714066 -5.399419 -15.051593 0.000000 0.000000 0.000000 16.072144 9.517341 -14.676799 -2.217229 -9.304606 26.752940 -0.516313 -7.231774 -18.106632 -0.368219 3.897717 -10.789151 -0.541835 1.209530 9.049242 0.335432 1.559820 3.946525 0.498306 0.768549 -1.007835 -5.582971 -1.779515 -1.766265 1.724712 -2.252160 10.287657 1.470121 -1.256054 3.765687 0.000000 0.000000 0.000000 14.624707 -37.089228 -86.669676 58.000785 -55.752979 32.683013 28.362216 -23.591482 -25.944033 0.000000 0.000000 0.000000 -7.125000 0.000000 0.000000 -1.689003 58.909727 0.574302 0.000000 0.000000 0.000000 -14.270134 -35.038320 65.411477 -60.185897 -56.359208 -34.495817 -32.041106 -69.526966 -25.737141 0.000000 0.000000 0.000000 7.125000 0.000000 0.000000 -1.354237 0.360191 -1.346037
0.076690 17.939421 -1.791229 1.882307 -0.933068 3.765820 0.000000 0.000000 0.000000 -20.596127 -5.992541 -15.520637 2.222522 9.315053 26.785827 0.676557 5.058547 -18.192796 0.771553 -5.608886 -15.653649 0.000000 0.000000 0.000000 15.314730 8.646868 -15.294374 -2.362167 -9.582852 27.636204 -0.521933 -8.094618 -18.930557 -0.313897 3.601498 -9.958176 1.459281 3.559345 9.339583 1.019006 4.851241 4.228769 -0.239639 2.428038 -0.803048 -5.436131 -5.871024 1.215556 -1.896355 -7.802043 2.769848 0.268088 -3.956294 0.783575 0.000000 0.000000 0.000000 25.310999 -34.293675 -80.308570 64.692724 -57.436012 38.271870 28.113808 -24.262129 -27.500597 0.000000 0.000000 0.000000 -7.125000 0.000000 0.000000 -2.579183 60.511144 0.976206 0.000000 0.000000 0.000000 -5.059245 -35.835286 74.013507 -57.495546 -55.604742 -32.265712 -32.851984 -69.129398 -25.894797 0.000000 0.000000 0.000000 7.125000 0.000000 0.000000 -1.805711 -0.029829 -1.807518
0.060584 17.957144 -1.761313 2.590724 2.991807 3.697813 0.000000 0.000000 0.000000 -21.410636 -7.709620 -14.319478 2.004607 8.875598 25.407000 0.582366 4.154600 -16.528136 0.814687 -5.758513 -16.085575 0.000000 0.000000 0.000000 14.702558 6.275087 -14.992706 -2.350819 -9.561398 27.567803 -0.452125 -9.642218 -19.655821 -0.406724 4.093982 -11.341163 2.315439 4.076765 9.455305 1.520271 5.630584 4.018954 -0.290930 2.819959 -1.040171 -5.181618 -7.871683 2.002654 -2.800439 -10.664280 -0.979150 0.071850 -5.280325 -0.507509 0.000000 0.000000 0.000000 29.475210 -30.382470 -76.967306 68.750934 -58.223153 41.707608 28.819187 -24.552836 -26.486412 0.000000 0.000000 0.000000 -7.125000 0.000000 0.000000 -1.356012 59.602896 0.482596 0.000000 0.000000 0.000000 -0.847612 -36.634897 80.812009 -55.107533 -54.858670 -30.303924 -32.659043 -67.163709 -26.775231 0.000000 0.000000 0.000000 7.125000 0.000000 0.000000 -1.527498 -0.947004 -1.553061
0.060569 17.958673 -1.728084 2.287935 6.034844 3.499651 0.000000 0.000000 0.000000 -21.103490 -9.201181 -13.751826 1.989190 8.843543 25.307092 0.552753 3.195899 -15.572242 0.942164 -6.181063 -17.310996 0.000000 0.000000 0.000000 15.217019 4.655738 -14.257732 -2.276502 -9.419678 27.117076 -0.418190 -10.864133 -20.563145 -0.327779 3.679625 -10.176975 2.113992 3.625768 8.646613 2.039326 5.005941 4.030239 0.468720 2.509246 -0.661966 -5.026454 -8.016563 2.362865 -1.371386 -10.918637 -2.838739 0.550075 -5.377899 -1.070740 0.000000 0.000000 0.000000 28.048532 -28.802771 -76.880783 70.720524 -58.547883 43.384861 29.002544 -25.229342 -25.906999 0.000000 0.000000 0.000000 -7.125000 0.000000 0.000000 -0.939863 59.023710 0.322178 0.000000 0.000000 0.000000 -1.946715 -36.093930 81.420489 -55.989966 -55.143034 -31.026765 -33.015757 -67.069124 -26.637955 0.000000 0.000000 0.000000 7.125000 0.000000 0.000000 -1.762484 -0.894601 -1.790639
0.097238 17.941933 -1.729453 1.938810 5.244083 3.378780 0.000000 0.000000 0.000000 -20.829819 -8.917479 -14.062752 2.103734 9.078940 26.042669 0.606086 3.212590 -16.223155 0.949081 -6.204252 -17.378157 0.000000 0.000000 0.000000 15.427138 4.574832 -14.512548 -2.318029 -9.499167 27.369690 -0.481271 -10.144026 -20.464231 -0.331971 3.702695 -10.241695 1.702066 3.373413 8.552931 1.787014 4.636560 3.887908 0.470312 2.320766 -0.772117 -4.970131 -7.604313 2.126800 -0.531857 -10.335301 -3.164034 0.788916 -5.096191 -1.101988 0.000000 0.000000 0.000000 24.722572 -27.915970 -78.495655 68.791806 -58.230364 41.742303 29.828395 -24.607844 -26.464556 0.000000 0.000000 0.000000 -7.125000 0.000000 0.000000 -0.168045 59.828201 0.060789 0.000000 0.000000 0.000000 -4.100301 -35.562221 81.002861 -56.157259 -55.195824 -31.164130 -33.075715 -66.920791 -26.125879 0.000000 0.000000 0.000000 7.125000 0.000000 0.000000 -1.894589 -0.346201 -1.907108
0.154456 17.942948 -1.685759 1.709655 2.796083 3.232372 0.000000 0.000000 0.000000 -20.848186 -8.125407 -13.819191 2.144885 9.161570 26.301992 0.654480 4.363648 -17.488126 0.900692 -6.048270 -16.924458 0.000000 0.000000 0.000000 15.483911 5.727085 -14.091819 -2.261163 -9.390104 27.023526 -0.477226 -9.507696 -19.787536 -0.378901 3.953239 -10.945286 0.692187 2.969804 8.335717 1.497837 4.017508 3.706885 0.794852 2.002305 -0.890828 -5.103246 -6.405155 1.096976 0.220118 -8.652867 -3.064882 0.983379 -4.271713 -0.895895 0.000000 0.000000 0.000000 20.129186 -25.157813 -79.813447 67.335142 -57.967049 40.505646 30.042374 -24.167087 -27.017283 0.000000 0.000000 0.000000 -7.125000 0.000000 0.000000 -0.107381 60.479573 0.040465 0.000000 0.000000 0.000000 -7.198593 -33.507787 80.388603 -57.419064 -55.581958 -32.202704 -33.335658 -67.269053 -25.243824 0.000000 0.000000 0.000000 7.125000 0.000000 0.000000 -2.212678 0.560720 -2.192580
